<svg xmlns="http://www.w3.org/2000/svg" width="31.89" height="44.291" viewBox="0 0 31.89 44.291">
  <g id="Current_Budget" data-name="Current Budget" transform="translate(0)">
    <path id="Path_320" data-name="Path 320" d="M22.029,5A4.429,4.429,0,0,0,17.6,9.429v31a4.429,4.429,0,0,0,4.429,4.429,4.429,4.429,0,0,0,4.429,4.429h18.6a4.429,4.429,0,0,0,4.429-4.429v-31A4.429,4.429,0,0,0,45.06,9.429,4.429,4.429,0,0,0,40.631,5Zm0,1.329h18.6a3.1,3.1,0,0,1,3.1,3.1v31a3.1,3.1,0,0,1-3.1,3.1h-18.6a3.1,3.1,0,0,1-3.1-3.1v-31A3.1,3.1,0,0,1,22.029,6.329ZM45.06,10.758a3.1,3.1,0,0,1,3.1,3.1v31a3.1,3.1,0,0,1-3.1,3.1h-18.6a3.1,3.1,0,0,1-3.1-3.1H40.631a4.429,4.429,0,0,0,4.429-4.429Z" transform="translate(-17.6 -5)" fill="#fff"/>
    <text id="_" data-name="$" transform="translate(8.178 25.815)" fill="#fff" font-size="19" font-family="AvenirNext-Regular, Avenir Next"><tspan x="0" y="0">$</tspan></text>
  </g>
</svg>
