<svg xmlns="http://www.w3.org/2000/svg" width="26.939" height="29.639" viewBox="0 0 26.939 29.639">
  <g id="contacts_icon" data-name="contacts icon" transform="translate(0 0)">
    <g id="Group_73" data-name="Group 73" transform="translate(1.868 0)">
      <g id="Group_72" data-name="Group 72">
        <path id="Path_86" data-name="Path 86" d="M131.935,47.792c0,.045,0,.089-.007.133.016-.195.006-.054,0-.007s-.022.083-.035.123c-.046.143.067-.14,0,0-.024.05-.179.274-.051.11a1.334,1.334,0,0,1-.205.205c.157-.13-.058.025-.11.051-.134.068.146-.054,0,0-.04.014-.082.025-.123.035s-.191.027.007,0c-.044.005-.089.006-.133.007H110.207c-.044,0-.089,0-.133-.007.195.016.054.006.007,0s-.083-.022-.123-.035c-.143-.046.14.067,0,0-.038-.018-.074-.039-.11-.061s-.047-.03-.07-.046q.12.1.037.028a1.335,1.335,0,0,1-.173-.179c.13.157-.025-.058-.051-.11-.068-.134.054.146,0,0-.014-.04-.025-.082-.035-.123s-.027-.191,0,.007a1.158,1.158,0,0,1-.007-.133V22.15c0-.04,0-.05,0-.089.008-.156-.029.158,0,.006.01-.056.106-.315.023-.123a1.324,1.324,0,0,1,.124-.218c-.1.154-.031.04,0,.006a1.339,1.339,0,0,1,.119-.116c.111-.1-.126.089,0,.005.035-.024.071-.044.108-.064s.172-.072-.007,0c.04-.016.081-.027.122-.039s.084-.02.126-.027c-.194.035-.051.009,0,.007h21.118c.04,0,.05,0,.089,0,.156.008-.158-.029-.006,0,.056.01.315.106.123.023.039.017.075.037.112.057s.2.137.036.012a1.335,1.335,0,0,1,.179.173c.1.111-.089-.126,0,0,.024.035.044.071.064.108s.072.172,0-.007c.016.04.027.081.039.121s.02.084.027.126c-.038-.2-.007-.01-.006.041s0,.086,0,.129V46.665q0,.563,0,1.126a.672.672,0,0,0,1.344,0V22.15a2.017,2.017,0,0,0-1.558-1.949,2.593,2.593,0,0,0-.557-.05h-20.83a3.192,3.192,0,0,0-.482.036,2.01,2.01,0,0,0-1.643,1.963c0,.168,0,.335,0,.5V47.791a2.017,2.017,0,0,0,1.558,1.949,2.593,2.593,0,0,0,.557.05h20.83a3.191,3.191,0,0,0,.482-.036,2.01,2.01,0,0,0,1.643-1.963.672.672,0,0,0-1.344,0Z" transform="translate(-108.208 -20.151)" fill="#fff"/>
      </g>
    </g>
    <g id="Group_75" data-name="Group 75" transform="translate(0 5.6)">
      <g id="Group_74" data-name="Group 74" transform="translate(0 0)">
        <path id="Path_87" data-name="Path 87" d="M50.533,196.454h3.684a.672.672,0,0,0,0-1.344H50.533a.672.672,0,0,0,0,1.344Z" transform="translate(-49.861 -195.11)" fill="#fff"/>
      </g>
    </g>
    <g id="Group_77" data-name="Group 77" transform="translate(0 11.311)">
      <g id="Group_76" data-name="Group 76">
        <path id="Path_88" data-name="Path 88" d="M54.217,373.521H50.533a.672.672,0,1,0,0,1.344h3.684a.672.672,0,1,0,0-1.344Z" transform="translate(-49.861 -373.521)" fill="#fff"/>
      </g>
    </g>
    <g id="Group_79" data-name="Group 79" transform="translate(0 16.984)">
      <g id="Group_78" data-name="Group 78">
        <path id="Path_89" data-name="Path 89" d="M54.217,550.781H50.533a.672.672,0,1,0,0,1.344h3.684a.672.672,0,1,0,0-1.344Z" transform="translate(-49.861 -550.781)" fill="#fff"/>
      </g>
    </g>
    <g id="Group_81" data-name="Group 81" transform="translate(0 22.695)">
      <g id="Group_80" data-name="Group 80">
        <path id="Path_90" data-name="Path 90" d="M54.217,729.193H50.533a.672.672,0,0,0,0,1.344h3.684a.672.672,0,0,0,0-1.344Z" transform="translate(-49.861 -729.193)" fill="#fff"/>
      </g>
    </g>
    <g id="Group_83" data-name="Group 83" transform="translate(10.435 7.801)">
      <g id="Group_82" data-name="Group 82">
        <path id="Path_91" data-name="Path 91" d="M382.479,267.856c0,.089,0,.178-.011.267,0,.044-.008.088-.013.131.023-.2.006-.048,0-.006a3.288,3.288,0,0,1-.142.539c-.014.04-.029.079-.045.119.071-.182.018-.043,0-.005-.035.077-.074.151-.114.225s-.085.144-.13.215c-.023.035-.047.069-.071.1l-.049.067q.094-.121.028-.038a3.327,3.327,0,0,1-.344.362c-.038.035-.256.209-.089.081-.077.059-.158.114-.241.166a3.3,3.3,0,0,1-.446.234c.2-.086-.067.021-.117.037-.095.032-.192.057-.289.08s-.17.035-.255.048c.218-.034-.073,0-.128.007a3.356,3.356,0,0,1-.577-.019c.219.025-.068-.015-.121-.026-.084-.017-.167-.04-.25-.064s-.162-.052-.242-.082c-.142-.054.143.064,0,0-.051-.022-.1-.047-.152-.072a3.315,3.315,0,0,1-.429-.261c-.033-.023-.149-.115,0,0-.033-.026-.065-.053-.1-.08-.074-.063-.144-.13-.212-.2s-.114-.122-.167-.185c-.026-.03-.117-.148,0,.006-.025-.033-.049-.067-.074-.1a3.309,3.309,0,0,1-.274-.47c-.018-.038-.035-.077-.052-.115.079.18.019.041,0,0-.03-.08-.056-.161-.079-.243s-.043-.167-.061-.251c-.009-.042-.016-.085-.023-.128q-.017-.111.006.049-.005-.044-.009-.087a3.356,3.356,0,0,1-.007-.534c0-.044.007-.088.011-.132.016-.156-.025.16,0,.005.015-.1.037-.2.062-.3s.046-.165.073-.246c.013-.04.029-.08.044-.12.054-.142-.064.143,0,0a3.3,3.3,0,0,1,.262-.478c.028-.043.2-.266.067-.1.052-.066.107-.128.163-.189s.116-.12.177-.177c.03-.029.062-.056.093-.083s.188-.15.026-.026a3.318,3.318,0,0,1,.422-.271c.074-.041.15-.077.226-.112.138-.063-.146.058,0,0,.053-.021.106-.039.16-.057a3.284,3.284,0,0,1,.5-.121c.154-.026-.161.019-.005,0,.044-.005.088-.008.132-.011.1-.008.208-.008.312-.006.089,0,.177.009.265.018.156.016-.16-.025-.005,0,.043.007.086.015.128.023a3.273,3.273,0,0,1,.533.155c.142.054-.143-.064,0,0,.039.017.077.035.114.054.076.037.149.078.221.12s.142.088.211.136c.034.024.068.049.1.074-.163-.122-.007,0,.026.026a3.326,3.326,0,0,1,.241.229c.039.04.075.082.112.123s.15.188.026.026a3.316,3.316,0,0,1,.348.571c.019.039.095.224.017.033.021.052.04.106.059.159a3.31,3.31,0,0,1,.094.329c.013.056.024.113.034.17.005.029.01.057.014.086q-.021-.16-.008-.048a3.319,3.319,0,0,1,.019.354.672.672,0,1,0,1.344,0,3.984,3.984,0,0,0-.71-2.266,4.124,4.124,0,0,0-1.941-1.485,3.981,3.981,0,0,0-4.736,5.807,3.946,3.946,0,0,0,1.723,1.546,4.115,4.115,0,0,0,2.519.288,4.013,4.013,0,0,0,3.145-3.891.672.672,0,0,0-1.344,0Z" transform="translate(-375.874 -263.873)" fill="#fff"/>
      </g>
    </g>
    <g id="Group_85" data-name="Group 85" transform="translate(7.728 14.493)">
      <g id="Group_84" data-name="Group 84">
        <path id="Path_92" data-name="Path 92" d="M304.666,479.607a6.787,6.787,0,0,0-1.588-4.318,6.611,6.611,0,0,0-3.806-2.232,6.667,6.667,0,0,0-7.526,4.193,6.543,6.543,0,0,0-.432,2.358.678.678,0,0,0,.672.672h12.007a.672.672,0,0,0,0-1.344H291.987l.672.672q0-.269.024-.537c0-.053.041-.347.011-.128.014-.1.031-.2.05-.3a5.956,5.956,0,0,1,.3-1.033c.015-.04.031-.079.048-.119-.074.181-.017.041,0,0,.034-.078.071-.154.109-.23.081-.164.172-.323.268-.479s.184-.282.284-.417c.023-.032.116-.15,0,0l.079-.1c.062-.076.126-.149.192-.222.112-.125.231-.243.353-.358.061-.057.124-.113.187-.168l.1-.081c.032-.027.19-.15.028-.025a6.019,6.019,0,0,1,.887-.564c.075-.039.151-.076.228-.112l.116-.053c.139-.062-.145.059,0,0,.172-.07.347-.131.524-.185s.334-.092.5-.128c.085-.018.171-.033.257-.048l.13-.02c-.212.031,0,0,.04,0a6.077,6.077,0,0,1,1.117-.012c.088.007.176.017.264.027-.219-.027.073.013.125.022.185.032.369.075.55.125.166.045.329.1.489.159.048.018.313.127.116.043.091.039.181.081.27.124a6,6,0,0,1,.9.545l.1.076c-.154-.117-.035-.026,0,0,.065.053.129.107.192.162.137.12.266.247.392.378s.225.249.33.379-.093-.123,0,0l.075.1c.058.079.113.161.166.243.092.141.177.287.258.435.04.074.078.15.115.226.018.038.036.077.054.115s.1.225.017.034a5.964,5.964,0,0,1,.32,1.024c.022.1.04.2.057.3.007.043.013.087.02.13-.031-.212,0,0,0,.04a6.1,6.1,0,0,1,.032.625.672.672,0,0,0,1.344,0Z" transform="translate(-291.315 -472.937)" fill="#fff"/>
      </g>
    </g>
  </g>
</svg>
