<svg xmlns="http://www.w3.org/2000/svg" width="77.43" height="83.211" viewBox="0 0 77.43 83.211">
  <g id="Group_7" data-name="Group 7" transform="translate(-5.8 -2.5)">
    <path id="Path_22" data-name="Path 22" d="M76.749,2.5H36.106a6.467,6.467,0,0,0-6.482,6.482V22.821H12.282A6.467,6.467,0,0,0,5.8,29.3V79.23a6.467,6.467,0,0,0,6.482,6.482H52.924a6.467,6.467,0,0,0,6.482-6.482V65.39H76.749a6.467,6.467,0,0,0,6.482-6.482V8.982A6.467,6.467,0,0,0,76.749,2.5ZM45.741,73.8H19.464a1.927,1.927,0,1,1,0-3.854h26.19a1.944,1.944,0,0,1,1.927,1.927A1.87,1.87,0,0,1,45.741,73.8Zm0-11.737H19.464a1.927,1.927,0,1,1,0-3.854h26.19a1.944,1.944,0,0,1,1.927,1.927A1.87,1.87,0,0,1,45.741,62.062Zm0-11.737H19.464a1.927,1.927,0,0,1,0-3.854h26.19A1.944,1.944,0,0,1,47.581,48.4,1.817,1.817,0,0,1,45.741,50.325Zm0-11.737H19.464a1.927,1.927,0,1,1,0-3.854h26.19a1.944,1.944,0,0,1,1.927,1.927A1.817,1.817,0,0,1,45.741,38.587ZM79.376,58.909a2.694,2.694,0,0,1-2.628,2.628H59.406V53.478H69.566a1.927,1.927,0,0,0,0-3.854H59.406V41.741H69.566a1.927,1.927,0,0,0,0-3.854H59.406V30H69.566a1.927,1.927,0,0,0,0-3.854H58.53a6.45,6.45,0,0,0-5.606-3.328H33.479V8.982a2.635,2.635,0,0,1,2.628-2.628H76.749a2.694,2.694,0,0,1,2.628,2.628Z" fill="#f7f7f7"/>
    <path id="Path_23" data-name="Path 23" d="M74.6,16.1H48.327a1.927,1.927,0,0,0,0,3.854h26.19a1.944,1.944,0,0,0,1.927-1.927A1.87,1.87,0,0,0,74.6,16.1Z" transform="translate(-5.038 -1.688)" fill="#f7f7f7"/>
  </g>
</svg>
