<svg xmlns="http://www.w3.org/2000/svg" width="26.482" height="26.481" viewBox="0 0 26.482 26.481">
  <g id="export_icon" data-name="export icon" transform="translate(-25.5 -27.519)">
    <path id="Path_77" data-name="Path 77" d="M31.482,14.6l-2.956-2.955-9.279,9.246-3.654-3.654,9.245-9.281L21.884,5h9.6Zm0,3.643v5.885a7.285,7.285,0,0,1-7.356,7.356H12.356A7.285,7.285,0,0,1,5,24.126V12.356A7.285,7.285,0,0,1,12.356,5h5.885V8.825H12.356a3.4,3.4,0,0,0-3.531,3.531v11.77a3.4,3.4,0,0,0,3.531,3.531h11.77a3.4,3.4,0,0,0,3.531-3.531V18.241Z" transform="translate(20.5 22.518)" fill="#404152"/>
  </g>
</svg>
