<svg xmlns="http://www.w3.org/2000/svg" width="25.471" height="30.29" viewBox="0 0 25.471 30.29">
  <g id="my_budgets_icon" data-name="my budgets icon" transform="translate(0 0)">
    <path id="Path_93" data-name="Path 93" d="M90.463,99.909,84.3,93.825a.687.687,0,0,0-.492-.2v0H71.688a.688.688,0,0,0-.688.688v24.946a.688.688,0,0,0,.688.688h18.29a.688.688,0,0,0,.688-.688V100.39h0A.687.687,0,0,0,90.463,99.909Zm-5.953-3.947L88.3,99.71H84.509Zm-12.133,22.61V95H83.133v5.4a.688.688,0,0,0,.688.688H89.29v17.485Z" transform="translate(-71 -89.659)" fill="#fff"/>
    <path id="Path_94" data-name="Path 94" d="M148.79,283.651h-8.9a.688.688,0,1,0,0,1.377h8.9a.688.688,0,1,0,0-1.377Z" transform="translate(-134.505 -266.602)" fill="#fff"/>
    <path id="Path_95" data-name="Path 95" d="M148.79,354.358h-8.9a.688.688,0,1,0,0,1.377h8.9a.688.688,0,0,0,0-1.377Z" transform="translate(-134.505 -332.442)" fill="#fff"/>
    <path id="Path_96" data-name="Path 96" d="M174.977,42.729a.686.686,0,0,0-.269-.512L168.617,36.2a.686.686,0,0,0-.4-.191l-.036,0-.036,0H156a.688.688,0,0,0-.688.688V38.64a.688.688,0,0,0,1.377,0V37.377h10.756v5.4a.688.688,0,0,0,.688.688H173.6V60.946h-3.029a.688.688,0,0,0,0,1.377h3.717a.688.688,0,0,0,.688-.688V42.764c0-.008,0-.015,0-.023Zm-6.156-.645V38.336l3.793,3.748Z" transform="translate(-149.508 -36)" fill="#fff"/>
  </g>
</svg>
