<svg xmlns="http://www.w3.org/2000/svg" width="27.472" height="30.646" viewBox="0 0 27.472 30.646">
  <g id="new_item_icon" data-name="new item icon" transform="translate(-3.592)">
    <path id="Path_97" data-name="Path 97" d="M2995.236,3514.54h12.4a1.3,1.3,0,0,1,0,2.5h-11.4v25.641h21.2v-13.755a1.027,1.027,0,1,1,2.035,0v15a1.158,1.158,0,0,1-1.015,1.255h-23.229a1.157,1.157,0,0,1-1.015-1.248v-28.144a1.414,1.414,0,0,1,.3-.89A.933.933,0,0,1,2995.236,3514.54Z" transform="translate(-2990.618 -3514.54)" fill="#404152"/>
    <path id="Path_98" data-name="Path 98" d="M3029.9,3522.535h-4.748v4.683a1.1,1.1,0,0,1-2.2,0v-4.683h-4.748a1.1,1.1,0,0,1,0-2.2h4.724v-4.684a1.1,1.1,0,0,1,2.2,0v4.684h4.747a1.1,1.1,0,1,1,.024,2.2Z" transform="translate(-2999.919 -3514.572)" fill="#404152"/>
  </g>
</svg>
