<svg xmlns="http://www.w3.org/2000/svg" width="36.341" height="40.711" viewBox="0 0 36.341 40.711">
  <g id="Group_97" data-name="Group 97" transform="translate(0.101 2.839)">
    <path id="Subtraction_1" data-name="Subtraction 1" d="M-429.734-15552.6H-453.6a2.406,2.406,0,0,1-2.4-2.4v-32.968a2.406,2.406,0,0,1,2.4-2.4h18.83a8.622,8.622,0,0,0-.718,1.075H-453.6a1.33,1.33,0,0,0-1.331,1.326v1.718l1.5,1.546c.7.747,3.1,1.546,5.538,1.546h4.508v-2.191a1.716,1.716,0,0,1,1.714-1.714,1.718,1.718,0,0,1,1.718,1.714v2.191h3.551a8.541,8.541,0,0,0,.327,1.115h-3.878v2.618a1.653,1.653,0,0,1-1.158,1.589v19.056h5.667c2.563,0,5.334.83,6.309,1.89l.728.771v-20.262c.142.008.3.013.474.013.2,0,.405-.007.6-.021V-15555A2.408,2.408,0,0,1-429.734-15552.6Zm-18.155-5.106c-2.385,0-4.789.8-5.538,1.541l-1.46,1.5a1.379,1.379,0,0,0,1.288.99h23.865a1.288,1.288,0,0,0,1.245-.99l-1.46-1.5c-.7-.744-3.091-1.541-5.534-1.541Zm-7.04-27h0v28.541l.732-.728c.975-1.06,3.746-1.89,6.309-1.89h5.667v-19.056a1.652,1.652,0,0,1-1.158-1.589v-2.618h-4.508c-2.565,0-5.277-.811-6.309-1.886l-.732-.775Zm13.263,4.337a.922.922,0,0,0-.943.942.956.956,0,0,0,.943.943.958.958,0,0,0,.947-.943A.946.946,0,0,0-441.666-15580.367Zm.56-1.676v.986a1.509,1.509,0,0,1,.387.173v-1.159Zm-1.46-.043v1.2a1.525,1.525,0,0,1,.387-.173v-1.029Zm0-1.843h0v.771h1.847v-.771a1.58,1.58,0,0,1-.947.3,1.36,1.36,0,0,1-.9-.3Zm.9-2.321a.956.956,0,0,0-.943.943.958.958,0,0,0,.943.947.96.96,0,0,0,.947-.947A.958.958,0,0,0-441.666-15586.25Z" transform="translate(456.001 15590.369)" fill="#fff" stroke="#fff" stroke-width="0.2"/>
    <circle id="Ellipse_72" data-name="Ellipse 72" cx="7.67" cy="7.67" r="7.67" transform="translate(20.4 -2.34)" fill="none" stroke="#fff" stroke-width="1"/>
    <line id="Line_42" data-name="Line 42" y2="9.588" transform="translate(28.07 0.536)" fill="none" stroke="#fff" stroke-width="1.5"/>
    <line id="Line_43" data-name="Line 43" x2="9.588" transform="translate(23.276 5.33)" fill="none" stroke="#fff" stroke-width="1.5"/>
  </g>
</svg>
