<svg xmlns="http://www.w3.org/2000/svg" width="34.871" height="42.971" viewBox="0 0 34.871 42.971">
  <g id="pc_log" data-name="pc log" transform="translate(0.1 0.1)">
    <g id="Group_98" data-name="Group 98" transform="translate(6)">
      <path id="Path_307" data-name="Path 307" d="M42.868,6H19a2.4,2.4,0,0,0-2.4,2.4V41.367a2.4,2.4,0,0,0,2.4,2.4H42.868a2.4,2.4,0,0,0,2.4-2.4V8.4A2.4,2.4,0,0,0,42.868,6Zm0,36.7H19a1.379,1.379,0,0,1-1.288-.987l1.459-1.5c.73-.73,3.133-1.545,5.537-1.545h12.4c2.447,0,4.85.816,5.537,1.545l1.459,1.5A1.288,1.288,0,0,1,42.868,42.7ZM19,7.073H42.868A1.337,1.337,0,0,1,44.2,8.4V10.12l-1.5,1.545c-.73.73-3.133,1.545-5.537,1.545H32.653V11.022c0-.944-3.434-.944-3.434,0v2.189H24.712c-2.447,0-4.85-.816-5.537-1.545l-1.5-1.545V8.4A1.337,1.337,0,0,1,19,7.073Zm25.71,3.262ZM30.936,10.12a.944.944,0,1,1-.944.944A.953.953,0,0,1,30.936,10.12Zm0,2.618a1.545,1.545,0,0,0,.944-.3v.773H30.034v-.773A1.347,1.347,0,0,0,30.936,12.739Zm.944,2.747a1.525,1.525,0,0,0-.386-.172v-.987h.386Zm-1.459-1.159v.987a1.525,1.525,0,0,0-.386.172v-1.2h.386ZM30.936,16a.944.944,0,1,1-.944.944A.926.926,0,0,1,30.936,16ZM43.469,39.479c-.987-1.073-3.777-1.889-6.309-1.889H31.494V18.533a1.662,1.662,0,0,0,1.159-1.588V14.327h4.507c2.532,0,5.322-.816,6.309-1.889l.73-.73V40.251ZM18.4,12.438c1.03,1.073,3.777,1.889,6.309,1.889h4.507v2.618a1.662,1.662,0,0,0,1.159,1.588V37.59H24.712c-2.532,0-5.322.816-6.309,1.889l-.73.73V11.666Zm-1.245-2.1Zm0,31.2Zm27.556,0Z" transform="translate(-16.6 -6)" fill="#fff" stroke="#fff" stroke-width="0.2"/>
    </g>
    <rect id="Rectangle_1509" data-name="Rectangle 1509" width="19" height="33" rx="1" transform="translate(14.5 3.6)" fill="#404152"/>
    <rect id="Rectangle_1508" data-name="Rectangle 1508" width="27" height="36" transform="translate(1 6)" fill="#404152"/>
    <g id="Group_97" data-name="Group 97" transform="translate(0 5)">
      <path id="Path_307-2" data-name="Path 307" d="M42.868,6H19a2.4,2.4,0,0,0-2.4,2.4V41.367a2.4,2.4,0,0,0,2.4,2.4H42.868a2.4,2.4,0,0,0,2.4-2.4V8.4A2.4,2.4,0,0,0,42.868,6Zm0,36.7H19a1.379,1.379,0,0,1-1.288-.987l1.459-1.5c.73-.73,3.133-1.545,5.537-1.545h12.4c2.447,0,4.85.816,5.537,1.545l1.459,1.5A1.288,1.288,0,0,1,42.868,42.7ZM19,7.073H42.868A1.337,1.337,0,0,1,44.2,8.4V10.12l-1.5,1.545c-.73.73-3.133,1.545-5.537,1.545H32.653V11.022a1.717,1.717,0,1,0-3.434,0v2.189H24.712c-2.447,0-4.85-.816-5.537-1.545l-1.5-1.545V8.4A1.337,1.337,0,0,1,19,7.073Zm25.71,3.262ZM30.936,10.12a.944.944,0,1,1-.944.944A.953.953,0,0,1,30.936,10.12Zm0,2.618a1.545,1.545,0,0,0,.944-.3v.773H30.034v-.773A1.347,1.347,0,0,0,30.936,12.739Zm.944,2.747a1.525,1.525,0,0,0-.386-.172v-.987h.386Zm-1.459-1.159v.987a1.525,1.525,0,0,0-.386.172v-1.2h.386ZM30.936,16a.944.944,0,1,1-.944.944A.926.926,0,0,1,30.936,16ZM43.469,39.479c-.987-1.073-3.777-1.889-6.309-1.889H31.494V18.533a1.662,1.662,0,0,0,1.159-1.588V14.327h4.507c2.532,0,5.322-.816,6.309-1.889l.73-.73V40.251ZM18.4,12.438c1.03,1.073,3.777,1.889,6.309,1.889h4.507v2.618a1.662,1.662,0,0,0,1.159,1.588V37.59H24.712c-2.532,0-5.322.816-6.309,1.889l-.73.73V11.666Zm-1.245-2.1Zm0,31.2Zm27.556,0Z" transform="translate(-16.6 -6)" fill="#fff" stroke="#fff" stroke-width="0.2"/>
    </g>
  </g>
</svg>
