<svg xmlns="http://www.w3.org/2000/svg" width="35.528" height="41.454" viewBox="0 0 35.528 41.454">
  <g id="po_log_icon" data-name="po log icon" transform="translate(0 0)">
    <path id="Path_314" data-name="Path 314" d="M236.416,198.255,231.034,193l-4.4,5.276L222.166,193l-4.358,5.277L213.364,193l-5.428,5.244c-.014-.23-.031-.383-.031-.535q0-17.528,0-35.056c0-.712.1-.829.725-.829h27.082c.607,0,.72.121.72.779q0,17.611,0,35.221C236.432,197.927,236.424,198.034,236.416,198.255Zm-27.247-35v31.961l4.282-4.132,4.347,5.163,4.36-5.272,4.47,5.28,4.32-5.182,4.234,4.133V163.254Z" transform="translate(-200.904 -161.82)" fill="#fff"/>
    <rect id="Rectangle_1507" data-name="Rectangle 1507" width="26" height="30" transform="translate(1.677 6.262)" fill="#404152"/>
    <path id="Path_311" data-name="Path 311" d="M342.548,315.388h7.486c.569,0,.883.35.883.707a.887.887,0,0,1-.909.825q-7.486,0-14.972,0a.864.864,0,0,1-.957-.825.727.727,0,0,1,.427-.6,1.586,1.586,0,0,1,.708-.106c.265.006.529,0,.794,0s.529,0,.793,0,.529,0,.793,0,.529,0,.793,0,.529,0,.793,0,.529,0,.793,0,.529,0,.793,0h1.781Z" transform="translate(-328.161 -302.077)" fill="#fff"/>
    <path id="Path_312" data-name="Path 312" d="M236.416,198.255,231.034,193l-4.4,5.276L222.166,193l-4.358,5.277L213.364,193l-5.428,5.244c-.014-.23-.031-.383-.031-.535q0-17.528,0-35.056c0-.712.1-.829.725-.829h27.082c.607,0,.72.121.72.779q0,17.611,0,35.221C236.432,197.927,236.424,198.034,236.416,198.255Zm-27.247-35v31.961l4.282-4.132,4.347,5.163,4.36-5.272,4.47,5.28,4.32-5.182,4.234,4.133V163.254Z" transform="translate(-207.904 -156.82)" fill="#fff"/>
    <path id="Path_313" data-name="Path 313" d="M342.068,432.133H349.6a.8.8,0,0,1,.882.771.853.853,0,0,1-.912.761H344.94c-.516,0-1.032,0-1.549,0s-1.032,0-1.549,0-1.032,0-1.549,0-1.033,0-1.549,0-1.032.006-1.549,0-1.033.011-1.55,0c-.254-.006-.507,0-.761.009a2.776,2.776,0,0,1-.782-.087.709.709,0,0,1-.1-1.307,1.057,1.057,0,0,1,.533-.137c2.511-.017,5.022-.011,7.534-.011Zm-2.333,5.38q2.567,0,5.134,0a.88.88,0,0,1,.908.722.856.856,0,0,1-.88.812c-3.423,0-6.982,0-10.4,0a.772.772,0,1,1,.013-1.534Q337.12,437.51,339.734,437.513Z" transform="translate(-327.727 -412.085)" fill="#fff"/>
  </g>
</svg>
