<svg xmlns="http://www.w3.org/2000/svg" width="39.298" height="39.299" viewBox="0 0 39.298 39.299">
  <g id="global_settings_icon" data-name="global settings icon" transform="translate(0.75 0.75)">
    <path id="Path_83" data-name="Path 83" d="M3.575,9.874H8.524a6.268,6.268,0,0,0,12.151,0H38.223a1.575,1.575,0,0,0,0-3.15H20.675a6.268,6.268,0,0,0-12.151,0H3.575a1.575,1.575,0,0,0,0,3.15ZM14.6,5.149A3.15,3.15,0,1,1,11.45,8.3,3.15,3.15,0,0,1,14.6,5.149Z" transform="translate(-2 -1.999)" fill="#fff" stroke="#404152" stroke-width="1.5"/>
    <path id="Path_84" data-name="Path 84" d="M3.575,41.874H21.124a6.268,6.268,0,0,0,12.151,0h4.949a1.575,1.575,0,0,0,0-3.15H33.274a6.268,6.268,0,0,0-12.151,0H3.575a1.575,1.575,0,0,0,0,3.15ZM27.2,37.15a3.15,3.15,0,1,1-3.15,3.15A3.15,3.15,0,0,1,27.2,37.15Z" transform="translate(-2 -21.4)" fill="#fff" stroke="#404152" stroke-width="1.5"/>
    <path id="Path_85" data-name="Path 85" d="M3.575,73.874H8.524a6.268,6.268,0,0,0,12.151,0H38.223a1.575,1.575,0,1,0,0-3.15H20.675a6.268,6.268,0,0,0-12.151,0H3.575a1.575,1.575,0,0,0,0,3.15ZM14.6,69.15a3.15,3.15,0,1,1-3.15,3.15A3.15,3.15,0,0,1,14.6,69.15Z" transform="translate(-2 -40.8)" fill="#fff" stroke="#404152" stroke-width="1.5"/>
  </g>
</svg>
