<svg xmlns="http://www.w3.org/2000/svg" width="25.514" height="27.253" viewBox="0 0 25.514 27.253">
  <g id="noun_sort_alphabetical_2021661" data-name="noun_sort alphabetical_2021661" transform="translate(-3.772 -8.6)">
    <path id="Path_35" data-name="Path 35" d="M16.7,8.6h2.217l5.3,12.212H21.2L20.137,18.23H15.4l-1.026,2.581H11.4Zm1.059,3.541-1.489,3.806h2.978Z" transform="translate(-7.627)" fill="#404152"/>
    <path id="Path_36" data-name="Path 36" d="M16.3,63.73l6.189-7.347H16.532V54h9.233v2.383L19.676,63.73h6.288v2.482H16.3Z" transform="translate(-10.906 -30.375)" fill="#404152"/>
    <path id="Path_37" data-name="Path 37" d="M65.6,27.232H62.849V9.99a1.4,1.4,0,0,0-1.39-1.39H59.969a1.4,1.4,0,0,0-1.39,1.39V27.232H55.833c-.563,0-.794.364-.5.827l4.832,7.446a.6.6,0,0,0,1.092,0l4.832-7.446C66.39,27.6,66.158,27.232,65.6,27.232Z" transform="translate(-36.936)" fill="#404152" fill-rule="evenodd"/>
  </g>
</svg>
