<svg xmlns="http://www.w3.org/2000/svg" width="30.203" height="19.02" viewBox="0 0 30.203 19.02">
  <g id="noun_Sort_882093" transform="translate(23.203 125.181) rotate(180)">
    <g id="Group_16" data-name="Group 16" transform="translate(-7 106.161)">
      <path id="Path_38" data-name="Path 38" d="M96.043,246.943A1.046,1.046,0,0,0,95,247.992V262.3l-2.041-1.717a1.06,1.06,0,0,0-1.361,1.626l1.622,1.364h0l1.145.963.882.742h0l.809.68h0l.81-.681.427-.359,1.6-1.347h0l1.622-1.364a1.06,1.06,0,0,0-1.361-1.626L97.113,262.3v-14.31a1.046,1.046,0,0,0-1.047-1.049h-.024Zm7.812.211a1.18,1.18,0,0,0,0,2.36h16.383a1.18,1.18,0,0,0,0-2.36Zm0,5.388a1.18,1.18,0,1,0,0,2.36h12.779a1.18,1.18,0,0,0,0-2.36Zm0,5.388a1.18,1.18,0,0,0,0,2.36h9.174a1.18,1.18,0,0,0,0-2.36Zm0,5.388a1.18,1.18,0,0,0,0,2.36h5.57a1.18,1.18,0,0,0,0-2.36Z" transform="translate(-91.214 -246.943)" fill="#404152" fill-rule="evenodd"/>
    </g>
  </g>
</svg>
