<svg xmlns="http://www.w3.org/2000/svg" width="96.362" height="76.738" viewBox="0 0 96.362 76.738">
  <g id="noun_Film_942525" transform="translate(0)">
    <g id="Group_6" data-name="Group 6" transform="translate(0)">
      <path id="Path_19" data-name="Path 19" d="M160.55,353.6a38.369,38.369,0,1,0,38.369,38.369A38.37,38.37,0,0,0,160.55,353.6Zm0,9.06a7.723,7.723,0,1,1-7.715,7.715A7.723,7.723,0,0,1,160.55,362.663ZM142.814,373.5A7.732,7.732,0,1,1,138,387.874a7.734,7.734,0,0,1,4.818-14.374Zm35.488,0a7.722,7.722,0,1,1-2.913.976A7.711,7.711,0,0,1,178.3,373.5Zm-37.408,21.593a7.738,7.738,0,1,1-2.9.976A7.738,7.738,0,0,1,140.894,395.093Zm39.3,0a7.725,7.725,0,1,1-7.635,3.81A7.722,7.722,0,0,1,180.191,395.093ZM160.55,405.834a7.731,7.731,0,1,1-7.715,7.731A7.737,7.737,0,0,1,160.55,405.834Zm28.333,15.431a40.294,40.294,0,0,1-14.47,9.076h44.131l-9.092-9.076H188.883Z" transform="translate(-122.182 -353.603)" fill="#f7f7f7"/>
    </g>
  </g>
</svg>
