<svg xmlns="http://www.w3.org/2000/svg" width="238.618" height="38.729" viewBox="0 0 238.618 38.729">
  <g id="Greenbudget_Logo" data-name="Greenbudget Logo" transform="translate(-107.633 -61.922)">
    <path id="Rectangle_9" data-name="Rectangle 9" d="M9,0H30.559a0,0,0,0,1,0,0V.8a9,9,0,0,1-9,9H0a0,0,0,0,1,0,0V9A9,9,0,0,1,9,0Z" transform="translate(315.213 90.852)" fill="#22c678"/>
    <text id="BETA" transform="translate(321.609 98.277)" fill="#fff" font-size="6.2" font-family="AvenirNext-Bold, Avenir Next" font-weight="700" letter-spacing="0.08em"><tspan x="0" y="0">BETA</tspan></text>
    <g id="NEW_LOGO" data-name="NEW LOGO" transform="translate(107.633 61.922)">
      <g id="S" transform="translate(0 2.572)">
        <path id="S-2" data-name="S" d="M1.735,0C.965.01.452.692.222,1.659a8.152,8.152,0,0,0-.2,1.548c-.006.133-.011.265-.014.4s0,.26,0,.386c0,.253,0,.5.012.723.114,1.883.146,3.3.972,4.777a8.647,8.647,0,0,0,2.961,2.857,50.653,50.653,0,0,0,6.2,3.261c1.586.755,2.9,1.4,3.933,1.881s1.832.853,2.423,1.13,1.013.482,1.3.644.5.278.65.357a4.474,4.474,0,0,1,1.805,3.3,7.659,7.659,0,0,1-.076,1.441c-.028.366.018.447.425.454.4-.031.851-.159,1.1-1.14a11,11,0,0,0,.271-2.073c.025-.445.037-.936.036-1.468q0-.2,0-.407T21.99,19.3c-.007-.288-.016-.586-.028-.9-.145-1.888-.2-3.254-1.459-4.859a9.966,9.966,0,0,0-2.36-1.8,59.15,59.15,0,0,0-6.481-3.126C9.548,7.71,7.735,6.871,6.34,6.2A33.705,33.705,0,0,1,3.3,4.616,3.12,3.12,0,0,1,2.161,1.493a6.618,6.618,0,0,0,.1-1.107A.406.406,0,0,0,2.127.094.4.4,0,0,0,1.969.021.749.749,0,0,0,1.863,0L1.8,0Z" transform="translate(0 0)" fill="#22c678"/>
      </g>
      <g id="greenbudget" transform="translate(125.729 0)">
        <path id="greenbudget-2" data-name="greenbudget" d="M63.942,32.035a3.686,3.686,0,0,1-1.437-2.41,1.459,1.459,0,0,1,.738-1.322c.35-.233.7-.311.738-.233,1.01,2.022,3.03,3.693,6.564,3.693,4,0,6.06-2.1,6.06-6.376V22.432a7.36,7.36,0,0,1-6.759,3.732c-4.933,0-8.545-3.616-8.545-9.253,0-5.4,3.729-9.369,8.662-9.369a7.37,7.37,0,0,1,6.72,3.577c0-.466.039-.933.039-1.4.155-1.516.893-1.9,1.67-1.9a1.543,1.543,0,0,1,1.01.311v16.6c0,6.337-2.874,9.447-8.817,9.447A10.066,10.066,0,0,1,63.942,32.035ZM64.1,16.873c0,4.238,2.486,7,6.254,7A6,6,0,0,0,76.6,18V14.268A6.294,6.294,0,0,0,70.39,9.914C66.661,9.914,64.1,12.79,64.1,16.873Zm39.78,4.238V10.341h-1.826c-.893,0-1.2-.389-1.2-1.05V9.019c0-.661.311-1.05,1.2-1.05h1.826V4.7c0-.972.5-1.361,1.243-1.361h.311c.738,0,1.2.35,1.2,1.361V7.97h4.7c.855,0,1.2.35,1.2,1.05v.233c0,.7-.35,1.089-1.243,1.089h-4.7V20.683c0,2.721.816,3.888,2.758,3.888a3.226,3.226,0,0,0,2.758-1.438c.117-.078.777.311.777,1.283a1.944,1.944,0,0,1-.7,1.439,4.56,4.56,0,0,1-3.224,1.089C105.548,26.942,103.877,25.037,103.877,21.11ZM82.045,17.339c0-5.637,3.845-9.8,9.167-9.8,5.166,0,8.507,3.654,8.507,9.136v.272c0,.661-.272.894-.971.894H84.726a2.754,2.754,0,0,0,.039.544,6.53,6.53,0,0,0,6.759,6.22c3.457,0,5.088-1.633,6.021-3.421a1.585,1.585,0,0,1,1.593,1.477,3.434,3.434,0,0,1-1.476,2.294,9.517,9.517,0,0,1-6.176,1.983C85.852,26.942,82.045,23.015,82.045,17.339ZM84.8,15.823H96.961C96.806,12.207,94.592,9.8,91.212,9.8S85.308,12.285,84.8,15.823Zm-44.635,1.4c0-5.754,3.651-9.68,8.623-9.68a7.424,7.424,0,0,1,6.681,3.577V.311c0-.117.427-.311.971-.311.932,0,1.826.466,1.826,2.488V25.309c0,1.011-.5,1.322-1.243,1.322h-.272c-.7,0-1.2-.311-1.2-1.244-.039-.778-.039-1.555-.039-2.41a7.375,7.375,0,0,1-6.8,3.965C43.819,26.942,40.168,23.054,40.168,17.222Zm2.8,0c0,4.315,2.6,7.348,6.254,7.348a6.09,6.09,0,0,0,6.254-6.065v-4.16a6.312,6.312,0,0,0-6.215-4.432C45.528,9.914,42.965,12.829,42.965,17.222ZM20.939,18.855V9.136c0-1.011.505-1.322,1.243-1.322h.311c.738,0,1.243.311,1.243,1.322v9.525c0,3.577,1.748,5.793,4.894,5.793a6.094,6.094,0,0,0,5.71-3.771V9.136c0-1.011.5-1.322,1.2-1.322h.35c.738,0,1.243.311,1.243,1.322V26.359a1.447,1.447,0,0,1-1.01.311c-.777,0-1.476-.389-1.631-1.827-.039-.505-.078-1.011-.078-1.516a7.219,7.219,0,0,1-6.37,3.616C23.269,26.942,20.939,23.637,20.939,18.855ZM2.719,23.093v2.333c-.039.894-.505,1.205-1.165,1.205H1.243C.5,26.631,0,26.32,0,25.231V.311C0,.194.427,0,.971,0c.893,0,1.787.466,1.787,2.488v8.9A7.633,7.633,0,0,1,9.594,7.542c4.778,0,8.468,3.849,8.468,9.642s-3.612,9.758-8.623,9.758A7.154,7.154,0,0,1,2.719,23.093Zm0-8.708v4.2A6.1,6.1,0,0,0,8.973,24.57c3.768,0,6.331-2.955,6.331-7.348,0-4.315-2.68-7.309-6.254-7.309A6.524,6.524,0,0,0,2.719,14.384Z" transform="translate(0 0)" fill="#ada9a9"/>
      </g>
      <g id="greenbudget_copy" data-name="greenbudget copy" transform="translate(28.572 7.348)">
        <path id="greenbudget_copy-2" data-name="greenbudget copy" d="M3.3,25.231a4.049,4.049,0,0,1-2.059-2.994A2.124,2.124,0,0,1,2.1,20.6c.427-.311.893-.428.932-.35a6.986,6.986,0,0,0,6.487,3.382c3.884,0,5.749-1.9,5.749-5.754V15.434A7.49,7.49,0,0,1,8.7,18.816C3.768,18.816,0,15.24,0,9.447,0,3.927,3.807,0,8.856,0a7.844,7.844,0,0,1,6.487,2.955l.117-.778a2.154,2.154,0,0,1,2.253-1.9,2,2,0,0,1,1.4.428V15.667c0,7.581-2.1,11.235-9.478,11.235A11.411,11.411,0,0,1,3.3,25.231ZM3.729,9.447c0,3.81,2.253,6.3,5.749,6.3A5.591,5.591,0,0,0,15.3,10.652V6.8A5.937,5.937,0,0,0,9.555,3.149C6.06,3.149,3.729,5.793,3.729,9.447Zm50.929.466C54.658,4.238,58.7,0,64.213,0c5.4,0,8.973,3.81,8.973,9.408v.311c0,.816-.272,1.127-1.165,1.127H58.232a4.288,4.288,0,0,0,.078.7A6.071,6.071,0,0,0,64.6,16.639c3.263,0,4.894-1.438,5.865-3.11.078-.078,2.02.272,2.02,1.9a3.743,3.743,0,0,1-2.059,2.721,11.047,11.047,0,0,1-5.9,1.516C58.62,19.672,54.658,15.745,54.658,9.914ZM58.27,8.242H69.457c-.194-3.227-2.175-5.326-5.283-5.326A5.96,5.96,0,0,0,58.27,8.242ZM34.457,9.914C34.457,4.238,38.5,0,44.013,0c5.4,0,8.973,3.81,8.973,9.408v.311c0,.816-.272,1.127-1.165,1.127H38.031a4.281,4.281,0,0,0,.078.7A6.07,6.07,0,0,0,44.4,16.639c3.263,0,4.894-1.438,5.865-3.11.078-.078,2.02.272,2.02,1.9a3.743,3.743,0,0,1-2.059,2.721,11.048,11.048,0,0,1-5.9,1.516C38.419,19.672,34.457,15.745,34.457,9.914ZM38.07,8.242H49.257c-.194-3.227-2.175-5.326-5.283-5.326A5.96,5.96,0,0,0,38.07,8.242Zm53.025,11.08c-1.01,0-1.709-.428-1.709-1.827V8.475c0-3.149-1.593-5.093-4.312-5.093A5.645,5.645,0,0,0,79.83,6.648V17.495c0,1.4-.738,1.827-1.709,1.827h-.427c-1.01,0-1.709-.428-1.709-1.827V.7a1.908,1.908,0,0,1,1.4-.428c1.049,0,2.331.544,2.408,3.032A7.246,7.246,0,0,1,86.006,0c4.933,0,7.225,3.382,7.225,8.009v9.486c0,1.4-.738,1.827-1.709,1.827Zm-66.311,0c-1.01,0-1.709-.428-1.709-1.827V.7a1.909,1.909,0,0,1,1.4-.428,2.2,2.2,0,0,1,2.253,1.866,6.974,6.974,0,0,1,.155,1.4A4.73,4.73,0,0,1,31.621,0c1.942,0,3.069.933,3.069,2.488a1.914,1.914,0,0,1-1.165,1.983,3.618,3.618,0,0,0-2.369-.816c-3.03,0-4.234,2.955-4.234,7.27v6.57c0,1.4-.738,1.827-1.709,1.827Z" transform="translate(0 0)" fill="#22c678"/>
      </g>
    </g>
  </g>
</svg>
