<svg xmlns="http://www.w3.org/2000/svg" width="175.823" height="28.631" viewBox="0 0 175.823 28.631">
  <g id="Greenbudget_Logo" data-name="Greenbudget Logo" transform="translate(-107.633 -61.922)">
    <path id="Rectangle_9" data-name="Rectangle 9" d="M7.22,0h15.3a0,0,0,0,1,0,0V0A7.22,7.22,0,0,1,15.3,7.22H0a0,0,0,0,1,0,0v0A7.22,7.22,0,0,1,7.22,0Z" transform="translate(260.586 83.239)" fill="#fff"/>
    <text id="BETA" transform="translate(265.299 88.552)" fill="#404152" font-size="4.5" font-family="AvenirNext-Bold, Avenir Next" font-weight="700" letter-spacing="0.08em"><tspan x="0" y="0">BETA</tspan></text>
    <g id="NEW_LOGO" data-name="NEW LOGO" transform="translate(107.633 61.922)">
      <g id="S" transform="translate(0 1.895)">
        <path id="S-2" data-name="S" d="M1.279,0C.711.008.333.51.163,1.222a6.007,6.007,0,0,0-.15,1.141c0,.1-.008.195-.01.291s0,.191,0,.285c0,.187,0,.366.009.533a7.6,7.6,0,0,0,.716,3.52A6.372,6.372,0,0,0,2.907,9.1a37.323,37.323,0,0,0,4.566,2.4c1.169.556,2.14,1.031,2.9,1.386s1.35.628,1.785.833.747.355.955.475.365.2.479.263a3.3,3.3,0,0,1,1.33,2.432,5.643,5.643,0,0,1-.056,1.062c-.021.27.013.329.313.335.3-.023.627-.117.809-.84a8.107,8.107,0,0,0,.2-1.528c.018-.328.027-.69.026-1.082q0-.147,0-.3t-.006-.312c0-.212-.012-.432-.021-.662a5.659,5.659,0,0,0-1.075-3.58,7.344,7.344,0,0,0-1.739-1.327,43.584,43.584,0,0,0-4.775-2.3C7.035,5.681,5.7,5.063,4.672,4.57A24.835,24.835,0,0,1,2.429,3.4a2.3,2.3,0,0,1-.837-2.3A4.876,4.876,0,0,0,1.668.285a.3.3,0,0,0-.1-.216A.3.3,0,0,0,1.451.016.552.552,0,0,0,1.373,0L1.328,0Z" transform="translate(0 0)" fill="#fff"/>
      </g>
      <g id="greenbudget" transform="translate(92.642 0)">
        <path id="greenbudget-2" data-name="greenbudget" d="M47.115,23.6a2.716,2.716,0,0,1-1.059-1.776,1.075,1.075,0,0,1,.544-.974c.258-.172.515-.229.544-.172A5,5,0,0,0,51.981,23.4c2.948,0,4.465-1.547,4.465-4.7V16.529a5.423,5.423,0,0,1-4.98,2.75c-3.635,0-6.3-2.664-6.3-6.818,0-3.982,2.748-6.9,6.382-6.9A5.43,5.43,0,0,1,56.5,8.193c0-.344.029-.687.029-1.031.114-1.117.658-1.4,1.231-1.4a1.137,1.137,0,0,1,.744.229V18.219c0,4.669-2.118,6.961-6.5,6.961A7.417,7.417,0,0,1,47.115,23.6Zm.115-11.172c0,3.122,1.832,5.156,4.608,5.156a4.423,4.423,0,0,0,4.608-4.326v-2.75A4.638,4.638,0,0,0,51.866,7.3C49.119,7.3,47.23,9.425,47.23,12.432Zm29.311,3.122V7.62H75.2c-.658,0-.887-.286-.887-.773v-.2c0-.487.229-.773.887-.773h1.345V3.466c0-.716.372-1,.916-1h.229c.544,0,.887.258.887,1V5.872h3.463c.63,0,.887.258.887.773v.172c0,.516-.258.8-.916.8H78.545v7.62c0,2.005.6,2.865,2.032,2.865a2.377,2.377,0,0,0,2.032-1.06c.086-.057.572.229.572.945a1.433,1.433,0,0,1-.515,1.06,3.36,3.36,0,0,1-2.376.8C77.772,19.852,76.541,18.448,76.541,15.555ZM60.454,12.776c0-4.154,2.833-7.219,6.755-7.219,3.807,0,6.268,2.693,6.268,6.732v.2c0,.487-.2.659-.715.659H62.429a2.029,2.029,0,0,0,.029.4,4.812,4.812,0,0,0,4.98,4.583,4.52,4.52,0,0,0,4.436-2.521A1.168,1.168,0,0,1,73.048,16.7a2.53,2.53,0,0,1-1.088,1.69,7.013,7.013,0,0,1-4.551,1.461A6.674,6.674,0,0,1,60.454,12.776Zm2.032-1.117h8.958c-.115-2.664-1.746-4.44-4.236-4.44A4.806,4.806,0,0,0,62.487,11.659ZM29.6,12.69c0-4.24,2.69-7.133,6.354-7.133a5.471,5.471,0,0,1,4.923,2.635V.229c0-.086.315-.229.715-.229.687,0,1.345.344,1.345,1.833V18.649c0,.745-.372.974-.916.974h-.2c-.515,0-.887-.229-.887-.917-.029-.573-.029-1.146-.029-1.776a5.434,5.434,0,0,1-5.009,2.922C32.288,19.852,29.6,16.987,29.6,12.69Zm2.061,0c0,3.18,1.918,5.414,4.608,5.414a4.487,4.487,0,0,0,4.608-4.469V10.57A4.651,4.651,0,0,0,36.295,7.3C33.547,7.3,31.658,9.453,31.658,12.69Zm-16.23,1.2V6.732c0-.745.372-.974.916-.974h.229c.544,0,.916.229.916.974V13.75c0,2.635,1.288,4.268,3.606,4.268A4.491,4.491,0,0,0,25.3,15.24V6.732c0-.745.372-.974.887-.974h.258c.544,0,.916.229.916.974v12.69a1.066,1.066,0,0,1-.744.229c-.572,0-1.088-.286-1.2-1.346-.029-.372-.057-.745-.057-1.117a5.319,5.319,0,0,1-4.694,2.664C17.146,19.852,15.428,17.417,15.428,13.893ZM2,17.016v1.719c-.029.659-.372.888-.859.888H.916c-.544,0-.916-.229-.916-1.031V.229C0,.143.315,0,.715,0c.658,0,1.317.344,1.317,1.833v6.56A5.624,5.624,0,0,1,7.069,5.557c3.52,0,6.239,2.836,6.239,7.1s-2.662,7.19-6.354,7.19A5.271,5.271,0,0,1,2,17.016ZM2,10.6v3.094A4.494,4.494,0,0,0,6.611,18.1c2.776,0,4.665-2.177,4.665-5.414C11.277,9.51,9.3,7.3,6.669,7.3A4.807,4.807,0,0,0,2,10.6Z" transform="translate(0 0)" fill="#fff"/>
      </g>
      <g id="greenbudget_copy" data-name="greenbudget copy" transform="translate(21.053 5.414)">
        <path id="greenbudget_copy-2" data-name="greenbudget copy" d="M2.433,18.591A2.983,2.983,0,0,1,.916,16.386a1.565,1.565,0,0,1,.63-1.2c.315-.229.658-.315.687-.258a5.148,5.148,0,0,0,4.78,2.492c2.862,0,4.236-1.4,4.236-4.24v-1.8a5.519,5.519,0,0,1-4.837,2.492C2.776,13.865,0,11.229,0,6.961,0,2.893,2.8,0,6.526,0a5.78,5.78,0,0,1,4.78,2.177l.086-.573A1.587,1.587,0,0,1,13.051.2a1.471,1.471,0,0,1,1.03.315V11.544c0,5.586-1.546,8.279-6.984,8.279A8.408,8.408,0,0,1,2.433,18.591Zm.315-11.63c0,2.807,1.66,4.641,4.236,4.641a4.12,4.12,0,0,0,4.293-3.753V5.013A4.375,4.375,0,0,0,7.041,2.32C4.465,2.32,2.748,4.268,2.748,6.961ZM40.274,7.3A6.979,6.979,0,0,1,47.315,0c3.978,0,6.612,2.807,6.612,6.932v.229c0,.6-.2.831-.859.831H42.907a3.16,3.16,0,0,0,.057.516A4.473,4.473,0,0,0,47.6,12.261a4.526,4.526,0,0,0,4.322-2.292c.057-.057,1.488.2,1.488,1.4a2.758,2.758,0,0,1-1.517,2.005,8.14,8.14,0,0,1-4.35,1.117C43.194,14.495,40.274,11.6,40.274,7.3Zm2.662-1.232h8.243c-.143-2.378-1.6-3.924-3.892-3.924A4.391,4.391,0,0,0,42.936,6.073ZM25.39,7.3A6.979,6.979,0,0,1,32.43,0c3.978,0,6.611,2.807,6.611,6.932v.229c0,.6-.2.831-.859.831H28.023a3.154,3.154,0,0,0,.057.516,4.473,4.473,0,0,0,4.637,3.753,4.526,4.526,0,0,0,4.322-2.292c.057-.057,1.488.2,1.488,1.4a2.758,2.758,0,0,1-1.517,2.005,8.14,8.14,0,0,1-4.35,1.117C28.309,14.495,25.39,11.6,25.39,7.3Zm2.662-1.232h8.243c-.143-2.378-1.6-3.924-3.893-3.924A4.391,4.391,0,0,0,28.051,6.073Zm39.071,8.164c-.744,0-1.259-.315-1.259-1.346V6.245c0-2.32-1.173-3.753-3.177-3.753A4.16,4.16,0,0,0,58.822,4.9v7.992c0,1.031-.544,1.346-1.259,1.346h-.315c-.744,0-1.259-.315-1.259-1.346V.516A1.406,1.406,0,0,1,57.019.2c.773,0,1.717.4,1.775,2.234A5.339,5.339,0,0,1,63.373,0C67.008,0,68.7,2.492,68.7,5.9v6.99c0,1.031-.544,1.346-1.259,1.346Zm-48.86,0c-.744,0-1.259-.315-1.259-1.346V.516A1.406,1.406,0,0,1,18.033.2a1.62,1.62,0,0,1,1.66,1.375,5.139,5.139,0,0,1,.115,1.031A3.485,3.485,0,0,1,23.3,0C24.73,0,25.56.687,25.56,1.833A1.411,1.411,0,0,1,24.7,3.294a2.666,2.666,0,0,0-1.746-.6c-2.232,0-3.12,2.177-3.12,5.357v4.841c0,1.031-.544,1.346-1.259,1.346Z" transform="translate(0 0)" fill="#fff"/>
      </g>
    </g>
  </g>
</svg>
