<svg xmlns="http://www.w3.org/2000/svg" width="421.593" height="224.922" viewBox="0 0 421.593 224.922">
  <g id="Upload_Project_Image" data-name="Upload Project Image" transform="translate(86.117 34.161)">
    <rect id="Rectangle_1467" data-name="Rectangle 1467" width="421.593" height="224.922" rx="19" transform="translate(-86.117 -34.161)" fill="#f7f7f7"/>
    <path id="Path_30" data-name="Path 30" d="M116.756,58.982V17.345A13.7,13.7,0,0,0,103.077,3.666H14.185A13.7,13.7,0,0,0,.506,17.345V90.01a13.7,13.7,0,0,0,13.679,13.679H67.052a34.641,34.641,0,1,0,49.7-44.707ZM14.185,97.495A7.493,7.493,0,0,1,6.7,90.01V17.345A7.493,7.493,0,0,1,14.185,9.86h88.892a7.493,7.493,0,0,1,7.485,7.485V55.808a33.679,33.679,0,0,0-18.581-1.852l-10.1-8.208c-.014-.01-.029-.017-.043-.029a2.955,2.955,0,0,0-.273-.18,2.691,2.691,0,0,0-.254-.155c-.066-.033-.136-.054-.206-.083a3.321,3.321,0,0,0-.361-.136c-.045-.012-.095-.014-.142-.027a2.919,2.919,0,0,0-.44-.074c-.058,0-.12,0-.178,0a3.037,3.037,0,0,0-.411.01c-.074.008-.147.031-.221.043a2.752,2.752,0,0,0-.365.083c-.068.023-.134.056-.2.085a2.967,2.967,0,0,0-.361.161c-.012.008-.027.01-.039.019L64.36,53.525,47.689,37.991c-.017-.017-.041-.021-.058-.035a3.058,3.058,0,0,0-.931-.572c-.041-.017-.081-.033-.122-.047a3.061,3.061,0,0,0-1.037-.165c-.045,0-.091,0-.136,0a3.049,3.049,0,0,0-1.012.235c-.047.019-.093.037-.14.06a3.106,3.106,0,0,0-.683.429L12,64.743a3.1,3.1,0,0,0,4.012,4.718L45.488,44.4l24.7,23.014a34.252,34.252,0,0,0-5.556,30.08Zm60.125-34.7L69.1,57.943,79.629,51.9l5.1,4.142A34.772,34.772,0,0,0,74.31,62.794Zm23.65,53.751a28.474,28.474,0,1,1,28.474-28.474A28.507,28.507,0,0,1,97.96,116.544Z" transform="translate(56.909 19.109)" fill="#404152"/>
    <path id="Path_31" data-name="Path 31" d="M18.607,34.4A13.062,13.062,0,1,0,5.545,21.342,13.077,13.077,0,0,0,18.607,34.4Zm0-19.931a6.868,6.868,0,1,1-6.868,6.868A6.875,6.875,0,0,1,18.607,14.472Z" transform="translate(62.274 24.022)" fill="#404152"/>
    <path id="Path_32" data-name="Path 32" d="M57.709,36.525c-.012-.01-.027-.017-.041-.027-.043-.039-.093-.07-.138-.105-.072-.052-.149-.1-.225-.147-.05-.031-.1-.064-.149-.093s-.1-.043-.142-.066c-.081-.037-.161-.066-.244-.1-.058-.023-.116-.047-.175-.066s-.1-.023-.147-.035c-.083-.021-.167-.035-.252-.047-.062-.01-.124-.025-.186-.031s-.116,0-.171-.006-.083-.012-.126-.012-.083.01-.126.012-.116,0-.171.006-.124.021-.186.031c-.085.014-.169.029-.252.047-.047.012-.1.021-.147.035s-.118.043-.176.066c-.083.031-.163.06-.244.1-.045.023-.095.043-.142.066s-.1.062-.151.093c-.076.045-.151.095-.221.147-.047.035-.1.066-.14.105-.014.01-.029.017-.041.027l-12.432,10.5a3.1,3.1,0,1,0,4,4.73l7.336-6.2V68.833a3.1,3.1,0,1,0,6.194,0V45.561l7.336,6.2a3.1,3.1,0,1,0,4-4.73Z" transform="translate(99.158 53.317)" fill="#404152"/>
  </g>
</svg>
