<svg xmlns="http://www.w3.org/2000/svg" width="251.139" height="251.139" viewBox="0 0 251.139 251.139">
  <g id="Story_Rights_Expanded" data-name="Story Rights Expanded" transform="translate(-1089.792 -354.586)">
    <g id="noun_upload_photo_1337310" data-name="noun_upload photo_1337310" transform="translate(1089.792 354.586)">
      <rect id="Rectangle_1468" data-name="Rectangle 1468" width="251.139" height="251.139" rx="25" transform="translate(0 0)" fill="#f7f7f7"/>
      <path id="Path_30" data-name="Path 30" d="M134.271,67.316V19.406a15.758,15.758,0,0,0-15.74-15.74H16.246A15.758,15.758,0,0,0,.506,19.406v83.613a15.758,15.758,0,0,0,15.74,15.74H77.079a39.861,39.861,0,1,0,57.193-51.443ZM16.246,111.631a8.622,8.622,0,0,1-8.613-8.613V19.406a8.622,8.622,0,0,1,8.613-8.613H118.531a8.622,8.622,0,0,1,8.613,8.613V63.664a38.754,38.754,0,0,0-21.381-2.131L94.145,52.089c-.017-.012-.033-.019-.05-.033a3.4,3.4,0,0,0-.314-.207,3.1,3.1,0,0,0-.292-.178c-.076-.038-.157-.062-.238-.1a3.821,3.821,0,0,0-.416-.157c-.052-.014-.109-.017-.164-.031a3.358,3.358,0,0,0-.506-.086c-.067,0-.138,0-.2,0a3.5,3.5,0,0,0-.473.012c-.086.01-.169.036-.254.05a3.167,3.167,0,0,0-.421.1c-.078.026-.154.064-.235.1a3.414,3.414,0,0,0-.416.185c-.014.009-.031.012-.045.021L73.981,61.037,54.8,43.163c-.019-.019-.048-.024-.067-.04a3.519,3.519,0,0,0-1.072-.658c-.048-.019-.093-.038-.14-.055a3.522,3.522,0,0,0-1.193-.19c-.052,0-.1,0-.157,0a3.508,3.508,0,0,0-1.164.271c-.055.021-.107.043-.162.069a3.573,3.573,0,0,0-.786.494L13.733,73.945a3.563,3.563,0,0,0,4.616,5.429L52.265,50.538,80.681,77.019a39.413,39.413,0,0,0-6.394,34.612ZM85.43,71.7l-5.99-5.581,12.11-6.957,5.866,4.766A40.011,40.011,0,0,0,85.43,71.7Zm27.214,61.849a32.764,32.764,0,1,1,32.764-32.764A32.8,32.8,0,0,1,112.644,133.551Z" transform="translate(49.582 61.848)" fill="#404152"/>
      <path id="Path_31" data-name="Path 31" d="M20.575,38.34A15.03,15.03,0,1,0,5.545,23.31,15.047,15.047,0,0,0,20.575,38.34Zm0-22.935a7.9,7.9,0,1,1-7.9,7.9A7.911,7.911,0,0,1,20.575,15.405Z" transform="translate(56.515 68.197)" fill="#404152"/>
      <path id="Path_32" data-name="Path 32" d="M60.35,36.635c-.014-.012-.031-.019-.048-.031-.05-.045-.107-.081-.159-.121-.083-.059-.171-.116-.259-.169-.057-.036-.112-.074-.171-.107s-.112-.05-.164-.076c-.093-.043-.185-.076-.28-.112-.067-.026-.133-.055-.2-.076s-.114-.026-.169-.04c-.1-.024-.192-.04-.29-.055-.071-.012-.143-.029-.214-.036s-.133,0-.2-.007-.1-.014-.145-.014-.1.012-.145.014-.133,0-.2.007-.143.024-.214.036c-.1.017-.195.033-.29.055-.055.014-.114.024-.169.04s-.135.05-.2.076c-.1.036-.188.069-.28.112-.052.026-.109.05-.164.076s-.114.071-.173.107c-.088.052-.173.109-.254.169-.055.04-.112.076-.162.121-.017.012-.033.019-.048.031L41.449,48.717a3.562,3.562,0,1,0,4.6,5.443l8.442-7.13V73.811a3.564,3.564,0,1,0,7.128,0V47.032l8.442,7.13a3.562,3.562,0,1,0,4.6-5.443Z" transform="translate(104.176 106.05)" fill="#404152"/>
    </g>
  </g>
</svg>
